<svg version="1.1" id="Layer_1" xmlns="http://www.w3.org/2000/svg" x="0" y="0" viewBox="0 0 94.2 92" xml:space="preserve"><style>.st0{fill:#826550}</style><path class="st0" d="M47.1 8.2c5 0 9.1 4.1 9.1 9.1s-4.1 9.1-9.1 9.1-9.1-4.1-9.1-9.1a9 9 0 019.1-9.1zm20.4 18.2H26.7a2.8 2.8 0 00-2.8 2.8v4.5c0 1.6 1.3 2.8 2.8 2.8h.8v45.4h-.8a2.8 2.8 0 00-2.8 2.8v4.5c0 1.6 1.3 2.8 2.8 2.8h40.8c1.6 0 2.8-1.3 2.8-2.8v-4.5c0-1.5-1.3-2.8-2.8-2.8h-.8V36.5h.8c1.6 0 2.8-1.3 2.8-2.8v-4.5c0-1.5-1.3-2.8-2.8-2.8zM33.7 36.5h13.2L33.7 49.7V36.5zm26.8 45.4H47l13.5-13.5v13.5zm0-28.7L33.7 80V64.9l26.8-26.8v15.1z"/><path class="st0" d="M47.1 0a47.1 47.1 0 00-28.2 84.8v-.1c0-1.5.4-2.9 1.2-4.1a43 43 0 1154 0 8.2 8.2 0 011.2 4.1v.1A47 47 0 0047.1 0z"/></svg>