<svg version="1.1" id="Layer_1" xmlns="http://www.w3.org/2000/svg" x="0" y="0" viewBox="0 0 94.2 88.6" xml:space="preserve"><style>.st0{fill:#826550}</style><path class="st0" d="M87.2 22.4l-1.7 5.2a43.2 43.2 0 01-12.9 54.1c1.2.7 2.2 1.6 3.1 2.7a47.2 47.2 0 0011.5-62zM9.5 70.3h1.3A43.1 43.1 0 0166 8.4a20 20 0 012.4-3.3A47.1 47.1 0 006.2 70.5l3.3-.2z"/><path class="st0" d="M53.5 82c.4-6.1-.9-14 .7-19.1 4.5-.1 9.6.4 13.2-.7 8.2-14.8 12-34 18.4-50.6V9c-.8-3-3.9-3.7-6.7-4.6h-.7C67.8 7.9 66.5 20.5 64 32.1c-15.8-4.2-32.3-.1-32.9 15.1-4.5.1-8 1.2-9.9 3.9-.6 6.7 1.6 10.7 6.6 11.8a22 22 0 01-7.2 12.5c-6.4.6-15.6-1.6-19.1 2V80c3.2 3.9 12.9 1.2 19.1 2 6.6-3.9 8.5-12.6 11.8-19.7 4.7.4 10.9-.8 14.5.7v19.7c-7.8.5-15.4 1.2-19.1 5.9h44.7c-3.2-5.3-12.4-4.6-19-6.6zM37.7 47.2c.7-11.7 15.4-11.7 25.6-8.5.1 4.7-.5 10.2 1.3 13.2-7-1-17-4.5-26.9-4.7z"/></svg>