<svg xmlns="http://www.w3.org/2000/svg" viewBox="0 0 320 142"><path d="M160.9 25.3V4.8c0-.6-.4-1-1-1s-1 .4-1 1v20.5h1c.5-.1.7 0 1 0zm-26 6.9c.6-.3 1.1-.7 1.7-1l-10.2-17.7c-.3-.5-.9-.6-1.4-.4-.5.3-.6.9-.4 1.4l10.3 17.7zm-35.3 6.3c-.3.5-.1 1.1.4 1.4l17.7 10.3c.3-.6.7-1.2 1-1.7L101 38.2c-.5-.3-1.1-.2-1.4.3zm95.9-26.2c-.5-.3-1.1-.1-1.4.4l-10.8 18.6c.6.3 1.2.7 1.7 1l10.8-18.6c.5-.5.2-1.1-.3-1.4zm25.4 27.2c.5-.3.6-.9.4-1.4-.3-.5-.9-.6-1.4-.4l-18.6 10.8c.3.6.7 1.1 1 1.7l18.6-10.7zM111.6 73.6v-1H90.1c-.6 0-1 .4-1 1s.4 1 1 1h21.5v-1zm118.3-1h-21.5v2h21.5c.6 0 1-.4 1-1s-.5-1-1-1zm-10 34.6l-17.7-10.3c-.3.6-.7 1.2-1 1.7l17.7 10.3c.2.1.3.1.5.1.3 0 .7-.2.9-.5.2-.4.1-1-.4-1.3zm-120.9.5c-.5.3-.6.9-.4 1.4.2.3.5.5.9.5.2 0 .3 0 .5-.1l18.6-10.8c-.3-.6-.7-1.1-1-1.7L99 107.7zm86 7.2c-.6.3-1.1.7-1.7 1l10.2 17.7c.2.3.5.5.9.5.2 0 .3 0 .5-.1.5-.3.6-.9.4-1.4L185 114.9zm-61 18.6c-.3.5-.1 1.1.4 1.4.2.1.3.1.5.1.3 0 .7-.2.9-.5l10.8-18.6c-.6-.3-1.2-.7-1.7-1L124 133.5zm34.9-11.6v20.5c0 .6.4 1 1 1s1-.4 1-1v-20.5h-2zm35-66.2c.7-.4 1-1.3.5-2-.4-.7-1.3-1-2-.5L164 69.6c-1-1-2.4-1.6-4-1.6-1.5 0-2.9.6-4 1.6l-20.3-11.8c-.7-.4-1.6-.2-2.1.5-.4.7-.2 1.6.5 2.1l20.3 11.8c-.1.5-.2.9-.2 1.4 0 3.1 2.5 5.7 5.7 5.7 3.1 0 5.7-2.5 5.7-5.7 0-.5-.1-1-.2-1.4l28.5-16.5zm-29.5 14.4zm.5.6zm-9.8 0s-.1 0 0 0c-.1 0 0 0 0 0zm.4-.6zm4.4 6.1c-1.5 0-2.7-1.2-2.7-2.7s1.2-2.7 2.7-2.7 2.7 1.2 2.7 2.7-1.2 2.7-2.7 2.7z" fill="#fff"/></svg>