<?xml version="1.0" encoding="utf-8"?><svg xmlns="http://www.w3.org/2000/svg" xmlns:xlink="http://www.w3.org/1999/xlink"><symbol viewBox="0 0 51.5 49.5" id="icon-admiral" xmlns="http://www.w3.org/2000/svg"><path d="M50.9 0h-.2c-2.3 7.7-2.9 17.1-9.4 20.6-1.2-3.4-4.1-4.9-7.4-6.4-2.1-.9-4.5-2.6-6.6-2.6-.5 0-1 0-1.5.3-.5-.3-1-.3-1.5-.3-2.1.1-4.5 1.7-6.6 2.6-3.3 1.5-6.3 3-7.4 6.4C3.8 17.1 3.1 7.7.8 0H.6C.3.7.2 1.6 0 2.4c0 1.9.5 21.5 1.9 28.4C3.2 37.2 8 41.7 12.7 44.7c3.3 2.1 8.5 4.8 13 4.8s9.7-2.8 13-4.8c4.7-3 9.6-7.5 10.8-13.8 1.4-7 1.9-26.5 1.9-28.4-.1-.9-.2-1.8-.5-2.5zm-14 28.1c-.2 1.6-1.7 3.4-3.4 3.5-3 .2-4.5-4.4-7.9-4.4-3.4 0-4.9 4.5-7.9 4.4-1.7-.1-3.1-1.9-3.4-3.5-.3-1.9.6-4.6 1.7-5.6 1.1-1.1 2.8-.9 4.7-1.2 2-.3 3.8-.9 4.9-1.9 1.1 1.1 2.8 1.7 4.9 1.9 1.9.3 3.6.1 4.7 1.2 1.1 1 2.1 3.7 1.7 5.6z"/></symbol><symbol viewBox="0 0 57 97.7" id="icon-boyar" xmlns="http://www.w3.org/2000/svg"><path d="M51.1 15.2c-.4-5.4-.6-10.8-2.5-15.2-.8 0-1.5 7.3-2.3 10.9-1.5 7.1-3.7 8.3-4.4 8.3-.9-3.9-4.4-4.2-7.8-5.9-1.2-.6-2.3-1.1-3.6-1.2-.7-.1-1.3.1-2 .1s-1.3-.2-2-.1c-1.3.1-2.4.6-3.6 1.2-3.4 1.6-6.9 2-7.8 5.9-.7 0-3-1.1-4.4-8.3C9.9 7.3 9.2 0 8.4 0 6.5 4.4 6.3 9.8 5.9 15.2 5 38.8 0 51.5 0 62.4c0 26.1 11.7 35.3 28.5 35.3S57 88.5 57 62.4c0-10.9-5-23.6-5.9-47.2zM34.4 25c-2.8 1.2-5.4-.7-5.9-.7h-.2c-.5 0-3.1 1.9-5.9.7-.8-3.6 2.4-4 5.9-3.9 3.7-.2 6.9.3 6.1 3.9z"/></symbol><symbol viewBox="0 0 57.7 68.6" id="icon-lumberjack" xmlns="http://www.w3.org/2000/svg"><path d="M52.3 19.8c.1-1.7.5-3.5.7-5.4.7-5.4 1.6-11.6-.1-16.8h-.2C51.3 1.4 51.4 6 50.5 10c-.7 3-1.8 5.7-3.2 7.6-.5.7-1.1 1.5-1.9 1.8-.7-3.9-4.3-4.9-7.7-6.4-2.1-.9-4-2-6.1-2.2-.8-.1-1.5.2-2 .2s-1.2-.3-2-.2c-2.1.1-4 1.3-6.1 2.2-3.4 1.4-7 2.4-7.7 6.4-.9-.3-1.4-1.1-1.9-1.8-1.5-1.9-2.6-4.6-3.2-7.6-1-4-1-8.6-2.3-12.4h-.2C4.5 2.8 5.4 9 6.1 14.4c.2 1.9.6 3.7.7 5.4.8 11.1-7 23.1-6 28.9.9 7.5 8.4 9.4 14.2 12.4 4.3 2.2 8.3 5 13.3 5.2h2.6c5-.2 9-2.9 13.3-5.2 5.8-3 13.2-4.8 14.2-12.4.9-5.8-6.9-17.8-6.1-28.9zm-22.8 3.8c-2.5 0-5.1-.1-7.2-.5.7-2.1 4-1.6 7.1-1.6h.2c3 0 6.4-.5 7.1 1.6-2.1.4-4.6.5-7.2.5z"/></symbol><symbol viewBox="0 0 62.4 78.5" id="icon-polarman" xmlns="http://www.w3.org/2000/svg"><path d="M62.4 42c0-5.2-2.4-7.8-3.6-10-.9-1.6-4-10.8-4.2-17.6C54.5 9.5 52.9 2 51.7 0c-.9 0-1.5 7.8-2.3 11.6-1.4 7-3.8 8.9-4.4 9-.8-2.8-4.1-7.4-13.7-7.7h-.2c-9.6.4-12.9 4.9-13.7 7.7-.7-.1-3-2-4.4-9C12.2 7.8 11.5 0 10.7 0 9.5 2 7.9 9.5 7.8 14.4c-.2 6.9-3.3 16-4.2 17.6C2.4 34.2 0 36.8 0 42c0 3.7 5.2 7.2 5.6 11.4.1 1.2 0 2.3.1 3.4 2 17.5 17.9 21.7 25.4 21.7 7.6 0 23.4-4.2 25.4-21.7.2-1 0-2.1.1-3.4.6-4.2 5.8-7.7 5.8-11.4zM33.2 26.8c-.7-.1-3.4-.1-4.1 0-1.7.3-5.8 1-5.8-1.1 0-1.1 6.7-2.3 7.8-2.3 1.1 0 7.8 1.2 7.8 2.3.1 2-3.9 1.4-5.7 1.1z"/></symbol><symbol viewBox="0 0 44.7 104.8" id="icon-sage" xmlns="http://www.w3.org/2000/svg"><path d="M43.4 0h-.1c-2.8 21.5-5.4 22.6-7 22.7-1.4.1-3.6-1.8-4.9-2.5-1.5-.9-4.1-2.5-9.1-2.5s-7.6 1.7-9.1 2.5c-1.3.7-3.5 2.6-4.9 2.5-1.6-.1-4.1-1.2-7-22.7h-.1C-.9 12.2-.4 50.2 2.4 63.6 5 82.1 12.5 98.7 15.8 103.2c.7 1 3.5 1.6 6.4 1.6 2.9 0 5.7-.5 6.4-1.6 3.3-4.5 10.8-21.1 13.4-39.6 2.9-13.4 3.5-51.4 1.4-63.6zM22.3 28.2c-3.4 0-6.7.2-10.1.5 1.1-1.8 9-3.2 10.1-3.4 1.1.2 9 1.7 10.1 3.4-3.4-.4-6.7-.5-10.1-.5z"/></symbol></svg>